<svg id="svg" version="1.1" xmlns="http://www.w3.org/2000/svg" xmlns:xlink="http://www.w3.org/1999/xlink" width="400" height="400" viewBox="0, 0, 400,400"><g id="svgg"><path id="path0" d="M125.911 28.500 L 125.800 34.200 120.100 34.311 L 114.400 34.422 114.400 57.200 L 114.400 79.978 120.100 80.089 L 125.800 80.200 125.911 85.700 L 126.023 91.200 154.411 91.200 L 182.800 91.200 182.800 85.600 L 182.800 80.000 200.000 80.000 L 217.200 80.000 217.200 85.600 L 217.200 91.200 245.589 91.200 L 273.977 91.200 274.089 85.700 L 274.200 80.200 279.900 80.089 L 285.600 79.978 285.600 57.200 L 285.600 34.422 279.900 34.311 L 274.200 34.200 274.089 28.500 L 273.978 22.800 200.000 22.800 L 126.022 22.800 125.911 28.500 M160.000 39.800 L 160.200 45.400 165.800 45.600 L 171.400 45.800 171.600 51.400 L 171.800 57.000 177.311 57.111 L 182.822 57.223 182.711 62.911 L 182.600 68.600 171.400 68.600 L 160.200 68.600 160.000 63.000 L 159.800 57.400 154.311 57.289 L 148.822 57.178 148.711 62.889 L 148.600 68.600 137.200 68.600 L 125.800 68.600 125.689 62.911 L 125.578 57.222 131.289 57.111 L 137.000 57.000 137.111 51.300 L 137.222 45.600 142.811 45.600 L 148.400 45.600 148.400 40.033 C 148.400 33.467,147.810 34.029,154.600 34.126 L 159.800 34.200 160.000 39.800 M250.967 34.243 C 251.502 34.448,251.600 35.344,251.600 40.043 L 251.600 45.600 257.189 45.600 L 262.778 45.600 262.889 51.300 L 263.000 57.000 268.711 57.111 L 274.422 57.222 274.311 62.911 L 274.200 68.600 262.800 68.600 L 251.400 68.600 251.289 62.889 L 251.178 57.178 245.689 57.289 L 240.200 57.400 240.000 63.000 L 239.800 68.600 228.600 68.600 L 217.400 68.600 217.289 62.911 L 217.178 57.223 222.689 57.111 L 228.200 57.000 228.400 51.400 L 228.600 45.800 234.200 45.600 L 239.800 45.400 239.905 40.200 C 239.962 37.340,240.092 34.775,240.192 34.500 C 240.385 33.973,249.685 33.751,250.967 34.243 M125.911 108.500 L 125.800 114.200 108.700 114.304 L 91.600 114.409 91.600 119.961 C 91.600 126.550,92.186 126.000,85.166 126.000 L 79.998 126.000 80.099 211.500 L 80.200 297.000 85.900 297.111 L 91.600 297.222 91.600 302.811 L 91.600 308.400 200.000 308.400 L 308.400 308.400 308.400 302.811 L 308.400 297.222 314.100 297.111 L 319.800 297.000 319.901 211.500 L 320.002 126.000 314.834 126.000 C 307.814 126.000,308.400 126.550,308.400 119.961 L 308.400 114.409 291.300 114.304 L 274.200 114.200 274.089 108.500 L 273.978 102.800 200.000 102.800 L 126.022 102.800 125.911 108.500 M297.101 211.500 L 297.202 297.200 200.001 297.200 L 102.800 297.200 102.800 211.667 C 102.800 164.623,102.920 126.013,103.067 125.866 C 103.215 125.719,146.910 125.644,200.167 125.699 L 297.000 125.800 297.101 211.500 M137.297 194.300 L 137.400 217.000 154.500 217.104 L 171.600 217.209 171.600 234.204 L 171.600 251.200 217.200 251.200 L 262.800 251.200 262.800 228.603 L 262.800 206.007 217.300 205.823 C 192.275 205.723,169.235 205.532,166.100 205.399 L 160.400 205.158 160.400 200.000 L 160.400 194.842 166.100 194.603 C 169.235 194.471,184.535 194.280,200.100 194.177 L 228.400 193.989 228.400 182.795 L 228.400 171.600 182.797 171.600 L 137.193 171.600 137.297 194.300 M205.911 222.900 L 206.023 228.400 211.611 228.400 L 217.200 228.400 217.200 222.789 L 217.200 217.178 222.900 217.289 L 228.600 217.400 228.711 222.900 L 228.823 228.400 234.411 228.400 L 240.000 228.400 240.000 222.800 L 240.000 217.200 245.811 217.200 L 251.622 217.200 251.511 222.900 L 251.400 228.600 245.700 228.711 L 240.000 228.822 240.000 234.422 L 240.000 240.022 234.300 239.911 L 228.600 239.800 228.489 234.300 L 228.377 228.800 222.789 228.800 L 217.200 228.800 217.200 234.400 L 217.200 240.000 211.400 240.000 L 205.600 240.000 205.600 234.400 L 205.600 228.800 200.000 228.800 L 194.400 228.800 194.400 234.400 L 194.400 240.000 188.589 240.000 L 182.778 240.000 182.889 234.300 L 183.000 228.600 188.500 228.489 L 194.000 228.377 194.000 223.055 C 194.000 216.600,193.404 217.156,200.177 217.289 L 205.800 217.400 205.911 222.900 " stroke="none" fill="#fcfcfc" fill-rule="evenodd"></path><path id="path1" d="M125.443 23.033 C 125.309 23.381,125.200 25.991,125.200 28.833 L 125.200 34.000 119.600 34.000 L 114.000 34.000 114.000 57.200 L 114.000 80.400 119.589 80.400 L 125.177 80.400 125.289 85.900 L 125.400 91.400 154.300 91.503 L 183.200 91.605 183.200 86.003 L 183.200 80.400 200.000 80.400 L 216.800 80.400 216.800 86.003 L 216.800 91.605 245.700 91.503 L 274.600 91.400 274.711 85.900 L 274.823 80.400 280.411 80.400 L 286.000 80.400 286.000 57.200 L 286.000 34.000 280.400 34.000 L 274.800 34.000 274.800 28.833 C 274.800 25.991,274.691 23.381,274.557 23.033 C 274.185 22.062,125.815 22.062,125.443 23.033 M274.089 28.500 L 274.200 34.200 279.900 34.311 L 285.600 34.422 285.600 57.200 L 285.600 79.978 279.900 80.089 L 274.200 80.200 274.089 85.700 L 273.977 91.200 245.589 91.200 L 217.200 91.200 217.200 85.600 L 217.200 80.000 200.000 80.000 L 182.800 80.000 182.800 85.600 L 182.800 91.200 154.411 91.200 L 126.023 91.200 125.911 85.700 L 125.800 80.200 120.100 80.089 L 114.400 79.978 114.400 57.200 L 114.400 34.422 120.100 34.311 L 125.800 34.200 125.911 28.500 L 126.022 22.800 200.000 22.800 L 273.978 22.800 274.089 28.500 M148.900 34.259 C 148.534 34.411,148.400 35.957,148.400 40.033 L 148.400 45.600 142.811 45.600 L 137.222 45.600 137.111 51.300 L 137.000 57.000 131.289 57.111 L 125.578 57.222 125.689 62.911 L 125.800 68.600 137.200 68.600 L 148.600 68.600 148.711 62.889 L 148.822 57.178 154.311 57.289 L 159.800 57.400 160.000 63.000 L 160.200 68.600 171.400 68.600 L 182.600 68.600 182.711 62.911 L 182.822 57.223 177.311 57.111 L 171.800 57.000 171.600 51.400 L 171.400 45.800 165.800 45.600 L 160.200 45.400 160.000 39.800 L 159.800 34.200 154.600 34.126 C 151.740 34.085,149.175 34.145,148.900 34.259 M240.192 34.500 C 240.092 34.775,239.962 37.340,239.905 40.200 L 239.800 45.400 234.200 45.600 L 228.600 45.800 228.400 51.400 L 228.200 57.000 222.689 57.111 L 217.178 57.223 217.289 62.911 L 217.400 68.600 228.600 68.600 L 239.800 68.600 240.000 63.000 L 240.200 57.400 245.689 57.289 L 251.178 57.178 251.289 62.889 L 251.400 68.600 262.800 68.600 L 274.200 68.600 274.311 62.911 L 274.422 57.222 268.711 57.111 L 263.000 57.000 262.889 51.300 L 262.778 45.600 257.189 45.600 L 251.600 45.600 251.600 40.043 C 251.600 35.344,251.502 34.448,250.967 34.243 C 249.685 33.751,240.385 33.973,240.192 34.500 M159.689 40.300 L 159.800 45.800 165.489 45.911 L 171.178 46.022 171.289 51.711 L 171.400 57.400 176.900 57.511 L 182.400 57.623 182.400 63.011 L 182.400 68.400 171.411 68.400 L 160.422 68.400 160.311 62.700 L 160.200 57.000 154.311 56.889 L 148.422 56.779 148.311 62.489 L 148.200 68.200 137.100 68.306 L 126.000 68.413 126.000 63.006 L 126.000 57.600 131.320 57.600 C 137.973 57.600,137.600 57.973,137.600 51.320 L 137.600 46.000 143.200 46.000 L 148.800 46.000 148.800 40.400 L 148.800 34.800 154.189 34.800 L 159.577 34.800 159.689 40.300 M251.200 40.400 L 251.200 46.000 256.800 46.000 L 262.400 46.000 262.400 51.320 C 262.400 57.973,262.027 57.600,268.680 57.600 L 274.000 57.600 274.000 63.006 L 274.000 68.413 262.900 68.306 L 251.800 68.200 251.689 62.489 L 251.578 56.779 245.689 56.889 L 239.800 57.000 239.689 62.700 L 239.578 68.400 228.589 68.400 L 217.600 68.400 217.600 63.011 L 217.600 57.623 223.100 57.511 L 228.600 57.400 228.711 51.711 L 228.822 46.022 234.511 45.911 L 240.200 45.800 240.311 40.300 L 240.423 34.800 245.811 34.800 L 251.200 34.800 251.200 40.400 M125.443 103.033 C 125.309 103.381,125.200 105.991,125.200 108.833 L 125.200 114.000 108.200 114.000 L 91.200 114.000 91.200 119.600 L 91.200 125.200 85.900 125.206 C 82.985 125.209,80.375 125.355,80.099 125.530 C 79.700 125.784,79.619 143.267,79.699 211.624 L 79.800 297.400 85.500 297.511 L 91.200 297.622 91.200 303.211 L 91.200 308.800 200.000 308.800 L 308.800 308.800 308.800 303.211 L 308.800 297.622 314.500 297.511 L 320.200 297.400 320.301 211.624 C 320.381 143.267,320.300 125.784,319.901 125.530 C 319.625 125.355,317.015 125.209,314.100 125.206 L 308.800 125.200 308.800 119.600 L 308.800 114.000 291.800 114.000 L 274.800 114.000 274.800 108.833 C 274.800 105.991,274.691 103.381,274.557 103.033 C 274.185 102.062,125.815 102.062,125.443 103.033 M274.089 108.500 L 274.200 114.200 291.300 114.304 L 308.400 114.409 308.400 119.961 C 308.400 126.550,307.814 126.000,314.834 126.000 L 320.002 126.000 319.901 211.500 L 319.800 297.000 314.100 297.111 L 308.400 297.222 308.400 302.811 L 308.400 308.400 200.000 308.400 L 91.600 308.400 91.600 302.811 L 91.600 297.222 85.900 297.111 L 80.200 297.000 80.099 211.500 L 79.998 126.000 85.166 126.000 C 92.186 126.000,91.600 126.550,91.600 119.961 L 91.600 114.409 108.700 114.304 L 125.800 114.200 125.911 108.500 L 126.022 102.800 200.000 102.800 L 273.978 102.800 274.089 108.500 M103.067 125.866 C 102.920 126.013,102.800 164.623,102.800 211.667 L 102.800 297.200 200.001 297.200 L 297.202 297.200 297.101 211.500 L 297.000 125.800 200.167 125.699 C 146.910 125.644,103.215 125.719,103.067 125.866 M296.800 211.400 L 296.800 296.800 200.000 296.800 L 103.200 296.800 103.200 211.400 L 103.200 126.000 200.000 126.000 L 296.800 126.000 296.800 211.400 M114.400 211.400 L 114.400 285.600 200.000 285.600 L 285.600 285.600 285.600 211.400 L 285.600 137.200 200.000 137.200 L 114.400 137.200 114.400 211.400 M228.400 165.600 L 228.400 171.200 182.800 171.200 L 137.200 171.200 137.200 165.600 L 137.200 160.000 182.800 160.000 L 228.400 160.000 228.400 165.600 M228.400 182.800 L 228.400 194.000 200.300 194.006 C 181.089 194.010,172.010 194.147,171.600 194.438 C 171.175 194.739,184.409 194.791,216.900 194.615 L 262.800 194.366 262.800 199.783 L 262.800 205.200 216.900 205.206 C 187.119 205.210,171.211 205.348,171.600 205.600 C 171.978 205.844,188.944 205.990,217.500 205.994 L 262.800 206.000 262.800 228.600 L 262.800 251.200 217.200 251.200 L 171.600 251.200 171.600 234.204 L 171.600 217.209 154.500 217.104 L 137.400 217.000 137.297 194.300 L 137.193 171.600 182.797 171.600 L 228.400 171.600 228.400 182.800 M194.277 217.456 C 194.125 217.609,194.000 220.128,194.000 223.055 L 194.000 228.377 188.500 228.489 L 183.000 228.600 182.889 234.300 L 182.778 240.000 188.589 240.000 L 194.400 240.000 194.400 234.400 L 194.400 228.800 200.000 228.800 L 205.600 228.800 205.600 234.400 L 205.600 240.000 211.400 240.000 L 217.200 240.000 217.200 234.400 L 217.200 228.800 222.789 228.800 L 228.377 228.800 228.489 234.300 L 228.600 239.800 234.300 239.911 L 240.000 240.022 240.000 234.422 L 240.000 228.822 245.700 228.711 L 251.400 228.600 251.511 222.900 L 251.622 217.200 245.811 217.200 L 240.000 217.200 240.000 222.800 L 240.000 228.400 234.411 228.400 L 228.823 228.400 228.711 222.900 L 228.600 217.400 222.900 217.289 L 217.200 217.178 217.200 222.789 L 217.200 228.400 211.611 228.400 L 206.023 228.400 205.911 222.900 L 205.800 217.400 200.177 217.289 C 197.085 217.229,194.430 217.304,194.277 217.456 M171.200 223.000 L 171.200 228.400 154.200 228.400 L 137.200 228.400 137.200 223.000 L 137.200 217.600 154.200 217.600 L 171.200 217.600 171.200 223.000 M205.200 223.000 L 205.200 228.400 200.000 228.400 L 194.800 228.400 194.800 223.000 L 194.800 217.600 200.000 217.600 L 205.200 217.600 205.200 223.000 M228.312 222.900 L 228.200 228.200 222.900 228.312 L 217.600 228.423 217.600 223.012 L 217.600 217.600 223.012 217.600 L 228.423 217.600 228.312 222.900 M251.200 223.000 L 251.200 228.400 245.800 228.400 L 240.400 228.400 240.400 223.000 L 240.400 217.600 245.800 217.600 L 251.200 217.600 251.200 223.000 M194.000 234.200 L 194.000 239.600 188.600 239.600 L 183.200 239.600 183.200 234.200 L 183.200 228.800 188.600 228.800 L 194.000 228.800 194.000 234.200 M216.800 234.200 L 216.800 239.600 211.400 239.600 L 206.000 239.600 206.000 234.200 L 206.000 228.800 211.400 228.800 L 216.800 228.800 216.800 234.200 M239.600 234.200 L 239.600 239.600 234.200 239.600 L 228.800 239.600 228.800 234.200 L 228.800 228.800 234.200 228.800 L 239.600 228.800 239.600 234.200 M262.800 257.200 L 262.800 262.800 217.200 262.800 L 171.600 262.800 171.600 257.200 L 171.600 251.600 217.200 251.600 L 262.800 251.600 262.800 257.200 " stroke="none" fill="#1c6c24" fill-rule="evenodd"></path><path id="path2" d="M125.200 16.600 L 125.200 22.400 119.600 22.400 L 114.000 22.400 114.000 28.200 L 114.000 34.000 108.200 34.000 L 102.400 34.000 102.400 57.200 L 102.400 80.400 108.200 80.400 L 114.000 80.400 114.000 86.200 L 114.000 92.000 119.600 92.000 L 125.200 92.000 125.200 97.200 L 125.200 102.400 108.000 102.400 L 90.800 102.400 90.800 108.200 L 90.800 114.000 85.200 114.000 L 79.600 114.000 79.600 119.600 L 79.600 125.200 73.800 125.200 L 68.000 125.200 68.000 142.400 L 68.000 159.600 62.800 159.600 L 57.600 159.600 57.600 148.200 L 57.600 136.800 51.800 136.800 L 46.000 136.800 46.000 125.400 L 46.000 114.000 40.400 114.000 L 34.800 114.000 34.800 102.400 L 34.800 90.800 29.000 90.800 L 23.200 90.800 23.200 79.400 L 23.200 68.000 17.000 68.000 L 10.800 68.000 10.800 85.600 L 10.800 103.200 16.600 103.200 L 22.400 103.200 22.400 114.600 L 22.400 126.000 28.200 126.000 L 34.000 126.000 34.000 137.600 L 34.000 149.200 39.600 149.200 L 45.200 149.200 45.200 160.600 L 45.200 172.000 51.000 172.000 L 56.800 172.000 56.800 177.600 L 56.800 183.200 62.400 183.200 L 68.000 183.200 68.000 240.400 L 68.000 297.600 73.800 297.600 L 79.600 297.600 79.600 303.400 L 79.600 309.200 85.200 309.200 L 90.800 309.200 90.800 314.800 L 90.800 320.400 113.800 320.400 L 136.800 320.400 136.800 325.600 L 136.800 330.800 131.000 330.800 L 125.200 330.800 125.200 337.000 L 125.200 343.200 154.200 343.200 L 183.200 343.200 183.200 337.000 L 183.200 330.800 177.600 330.800 L 172.000 330.800 172.000 325.600 L 172.000 320.400 200.000 320.400 L 228.000 320.400 228.000 325.600 L 228.000 330.800 222.400 330.800 L 216.800 330.800 216.800 337.000 L 216.800 343.200 245.800 343.200 L 274.800 343.200 274.800 337.000 L 274.800 330.800 269.000 330.800 L 263.200 330.800 263.200 325.600 L 263.200 320.400 286.200 320.400 L 309.200 320.400 309.200 314.800 L 309.200 309.200 314.800 309.200 L 320.400 309.200 320.400 303.400 L 320.400 297.600 326.200 297.600 L 332.000 297.600 332.000 240.400 L 332.000 183.200 337.600 183.200 L 343.200 183.200 343.200 177.600 L 343.200 172.000 349.000 172.000 L 354.800 172.000 354.800 160.600 L 354.800 149.200 360.400 149.200 L 366.000 149.200 366.000 137.600 L 366.000 126.000 371.800 126.000 L 377.600 126.000 377.600 114.600 L 377.600 103.200 383.400 103.200 L 389.200 103.200 389.200 85.600 L 389.200 68.000 383.000 68.000 L 376.800 68.000 376.800 79.400 L 376.800 90.800 371.000 90.800 L 365.200 90.800 365.200 102.400 L 365.200 114.000 359.600 114.000 L 354.000 114.000 354.000 125.400 L 354.000 136.800 348.200 136.800 L 342.400 136.800 342.400 148.200 L 342.400 159.600 337.200 159.600 L 332.000 159.600 332.000 142.400 L 332.000 125.200 326.200 125.200 L 320.400 125.200 320.400 119.600 L 320.400 114.000 314.800 114.000 L 309.200 114.000 309.200 108.200 L 309.200 102.400 292.000 102.400 L 274.800 102.400 274.800 97.200 L 274.800 92.000 280.400 92.000 L 286.000 92.000 286.000 86.200 L 286.000 80.400 291.800 80.400 L 297.600 80.400 297.600 57.200 L 297.600 34.000 291.800 34.000 L 286.000 34.000 286.000 28.200 L 286.000 22.400 280.400 22.400 L 274.800 22.400 274.800 16.600 L 274.800 10.800 200.000 10.800 L 125.200 10.800 125.200 16.600 M274.557 23.033 C 274.691 23.381,274.800 25.991,274.800 28.833 L 274.800 34.000 280.400 34.000 L 286.000 34.000 286.000 57.200 L 286.000 80.400 280.411 80.400 L 274.823 80.400 274.711 85.900 L 274.600 91.400 245.700 91.503 L 216.800 91.605 216.800 86.003 L 216.800 80.400 200.000 80.400 L 183.200 80.400 183.200 86.003 L 183.200 91.605 154.300 91.503 L 125.400 91.400 125.289 85.900 L 125.177 80.400 119.589 80.400 L 114.000 80.400 114.000 57.200 L 114.000 34.000 119.600 34.000 L 125.200 34.000 125.200 28.833 C 125.200 25.991,125.309 23.381,125.443 23.033 C 125.815 22.062,274.185 22.062,274.557 23.033 M148.800 40.400 L 148.800 46.000 143.200 46.000 L 137.600 46.000 137.600 51.320 C 137.600 57.973,137.973 57.600,131.320 57.600 L 126.000 57.600 126.000 63.006 L 126.000 68.413 137.100 68.306 L 148.200 68.200 148.311 62.489 L 148.422 56.779 154.311 56.889 L 160.200 57.000 160.311 62.700 L 160.422 68.400 171.411 68.400 L 182.400 68.400 182.400 63.011 L 182.400 57.623 176.900 57.511 L 171.400 57.400 171.289 51.711 L 171.178 46.022 165.489 45.911 L 159.800 45.800 159.689 40.300 L 159.577 34.800 154.189 34.800 L 148.800 34.800 148.800 40.400 M240.311 40.300 L 240.200 45.800 234.511 45.911 L 228.822 46.022 228.711 51.711 L 228.600 57.400 223.100 57.511 L 217.600 57.623 217.600 63.011 L 217.600 68.400 228.589 68.400 L 239.578 68.400 239.689 62.700 L 239.800 57.000 245.689 56.889 L 251.578 56.779 251.689 62.489 L 251.800 68.200 262.900 68.306 L 274.000 68.413 274.000 63.006 L 274.000 57.600 268.680 57.600 C 262.027 57.600,262.400 57.973,262.400 51.320 L 262.400 46.000 256.800 46.000 L 251.200 46.000 251.200 40.400 L 251.200 34.800 245.811 34.800 L 240.423 34.800 240.311 40.300 M274.557 103.033 C 274.691 103.381,274.800 105.991,274.800 108.833 L 274.800 114.000 291.800 114.000 L 308.800 114.000 308.800 119.600 L 308.800 125.200 314.100 125.206 C 317.015 125.209,319.625 125.355,319.901 125.530 C 320.300 125.784,320.381 143.267,320.301 211.624 L 320.200 297.400 314.500 297.511 L 308.800 297.622 308.800 303.211 L 308.800 308.800 200.000 308.800 L 91.200 308.800 91.200 303.211 L 91.200 297.622 85.500 297.511 L 79.800 297.400 79.699 211.624 C 79.619 143.267,79.700 125.784,80.099 125.530 C 80.375 125.355,82.985 125.209,85.900 125.206 L 91.200 125.200 91.200 119.600 L 91.200 114.000 108.200 114.000 L 125.200 114.000 125.200 108.833 C 125.200 105.991,125.309 103.381,125.443 103.033 C 125.815 102.062,274.185 102.062,274.557 103.033 M103.200 211.400 L 103.200 296.800 200.000 296.800 L 296.800 296.800 296.800 211.400 L 296.800 126.000 200.000 126.000 L 103.200 126.000 103.200 211.400 M285.600 211.400 L 285.600 285.600 200.000 285.600 L 114.400 285.600 114.400 211.400 L 114.400 137.200 200.000 137.200 L 285.600 137.200 285.600 211.400 M137.200 165.600 L 137.200 171.200 182.800 171.200 L 228.400 171.200 228.400 165.600 L 228.400 160.000 182.800 160.000 L 137.200 160.000 137.200 165.600 M199.500 194.700 L 170.800 194.805 170.800 200.003 L 170.800 205.200 216.800 205.200 L 262.800 205.200 262.800 199.800 L 262.800 194.400 245.500 194.497 C 235.985 194.551,215.285 194.642,199.500 194.700 M137.200 223.000 L 137.200 228.400 154.200 228.400 L 171.200 228.400 171.200 223.000 L 171.200 217.600 154.200 217.600 L 137.200 217.600 137.200 223.000 M194.800 223.000 L 194.800 228.400 200.000 228.400 L 205.200 228.400 205.200 223.000 L 205.200 217.600 200.000 217.600 L 194.800 217.600 194.800 223.000 M217.600 223.012 L 217.600 228.423 222.900 228.312 L 228.200 228.200 228.312 222.900 L 228.423 217.600 223.012 217.600 L 217.600 217.600 217.600 223.012 M240.400 223.000 L 240.400 228.400 245.800 228.400 L 251.200 228.400 251.200 223.000 L 251.200 217.600 245.800 217.600 L 240.400 217.600 240.400 223.000 M183.200 234.200 L 183.200 239.600 188.600 239.600 L 194.000 239.600 194.000 234.200 L 194.000 228.800 188.600 228.800 L 183.200 228.800 183.200 234.200 M206.000 234.200 L 206.000 239.600 211.400 239.600 L 216.800 239.600 216.800 234.200 L 216.800 228.800 211.400 228.800 L 206.000 228.800 206.000 234.200 M228.800 234.200 L 228.800 239.600 234.200 239.600 L 239.600 239.600 239.600 234.200 L 239.600 228.800 234.200 228.800 L 228.800 228.800 228.800 234.200 M171.600 257.200 L 171.600 262.800 217.200 262.800 L 262.800 262.800 262.800 257.200 L 262.800 251.600 217.200 251.600 L 171.600 251.600 171.600 257.200 " stroke="none" fill="#040404" fill-rule="evenodd"></path></g></svg>